<svg xmlns="http://www.w3.org/2000/svg" width="321" height="150" viewBox="0 0 321 150">
    <g fill="none" fill-rule="evenodd">
        <ellipse cx="160" cy="141.568" fill="#9096BA" opacity=".4" rx="101" ry="8"/>
        <path fill="#D64527" fill-rule="nonzero" d="M187.787 9.887c5.174 4.202 9.373 9.669 12.595 16.399 4.108 8.58 6.162 18.746 6.162 30.498 0 11.752-2.054 21.918-6.162 30.498-4.108 8.58-9.802 15.106-17.082 19.578-7.28 4.472-15.548 6.708-24.804 6.708-9.36 0-17.68-2.236-24.96-6.708a41.905 41.905 0 0 1-3.929-2.733l.467-.699 15.531-12.444 2.707-7.088c2.745 2.933 6.14 4.4 10.184 4.4 5.2 0 9.334-2.522 12.402-7.566 3.068-5.044 4.602-13.026 4.602-23.946 0-7.943-.812-14.332-2.435-19.167l.275-1.389 8.875-6.222 4.437-18.666zM80.964 2.184l-44.46 63.804h22.152V47.424h29.172v18.564h16.224V90.48H87.828v20.904H57.72V90.48H0V70.356L48.984 2.184h31.98zm216.06 0l-44.46 63.804h22.152V47.424h29.172v18.564h16.224V90.48h-16.224v20.904H273.78V90.48h-57.72V70.356l48.984-68.172h31.98zM158.496 0c8.926 0 16.932 2.08 24.02 6.238l-.301.124-6.656 19.91-5.562 5.2c-2.96-4.133-6.794-6.2-11.501-6.2-5.304 0-9.49 2.522-12.558 7.566-3.068 5.044-4.602 13.026-4.602 23.946 0 7.921.807 14.296 2.421 19.125l-4.808 12.586-14.708 10.608c-3.033-3.373-5.629-7.314-7.787-11.821-4.108-8.58-6.162-18.746-6.162-30.498 0-11.752 2.054-21.918 6.162-30.498 4.108-8.58 9.802-15.106 17.082-19.578 7.28-4.472 15.6-6.708 24.96-6.708z"/>
    </g>
</svg>
